<?xml version="1.0" encoding="UTF-8"?>
<svg version="1.1" xmlns="http://www.w3.org/2000/svg" width="512" height="512">
<path d="M0 0 C6.19726292 4.11643012 12.42239531 8.59314446 16.67578125 14.77734375 C20.64268813 14.11136668 23.57814702 12.15480392 26.98828125 10.08984375 C52.55096106 -4.93926653 83.38991434 -8.61043394 112.14453125 -1.48046875 C113.65729103 -1.06973234 115.1677566 -0.65045081 116.67578125 -0.22265625 C117.44277344 -0.00834961 118.20976562 0.20595703 119 0.42675781 C130.19422249 3.64720624 140.46726291 8.20629897 150.67578125 13.77734375 C151.76890625 14.36644531 152.86203125 14.95554687 153.98828125 15.5625 C160.77585956 19.36319755 166.78435291 23.70731648 172.67578125 28.77734375 C173.52140625 29.50050781 174.36703125 30.22367188 175.23828125 30.96875 C193.57331378 47.03985321 207.1113853 67.77432526 208.96142578 92.61230469 C209.07743533 96.63095585 209.09767056 100.6330248 209.05078125 104.65234375 C209.04612854 105.36700806 209.04147583 106.08167236 209.03668213 106.81799316 C208.78696053 139.76843817 203.0032154 173.26027614 180.67578125 198.77734375 C179.81919922 199.7828125 179.81919922 199.7828125 178.9453125 200.80859375 C169.52555905 211.04239996 154.45974401 220.26476451 140.67578125 222.77734375 C140.69934692 224.05242798 140.69934692 224.05242798 140.72338867 225.35327148 C141.2480762 258.06764972 141.2480762 258.06764972 137.67578125 270.77734375 C137.4447168 271.60379395 137.21365234 272.43024414 136.97558594 273.28173828 C129.01836505 300.82172982 112.84937735 323.50159207 87.67578125 337.77734375 C69.96789353 347.32775701 52.34230076 352.18190024 32.17578125 352.15234375 C31.18800186 352.15102951 31.18800186 352.15102951 30.18026733 352.14968872 C18.91660348 352.10044736 8.45418666 351.10487288 -2.32421875 347.77734375 C-3.08138184 347.54660156 -3.83854492 347.31585938 -4.61865234 347.078125 C-28.65172868 339.50297148 -50.3455471 326.20176538 -69.32421875 309.77734375 C-70.11699219 309.09542969 -70.90976563 308.41351563 -71.7265625 307.7109375 C-104.89449548 278.5210062 -104.89449548 278.5210062 -107.88671875 264.05859375 C-107.32421875 261.77734375 -107.32421875 261.77734375 -105.32421875 259.99609375 C-84.42044404 248.01997282 -63.06665085 236.99523296 -41.50372314 226.26928711 C-38.81870204 224.93224746 -36.13597277 223.59064412 -33.45325756 222.24898529 C-30.8244029 220.93469481 -28.19450618 219.62250115 -25.5642643 218.31098938 C-23.74340557 217.40287189 -21.92310699 216.49363153 -20.10282898 215.58435059 C-13.23786713 212.17137073 -6.32856907 208.89463145 0.67578125 205.77734375 C-3.31521477 201.06496325 -3.31521477 201.06496325 -7.48046875 196.5078125 C-24.59825525 178.36413126 -31.59674677 152.35324507 -32.32421875 127.77734375 C-32.38416016 125.82634766 -32.38416016 125.82634766 -32.4453125 123.8359375 C-32.6392385 113.99757559 -31.78975729 104.49962171 -30.32421875 94.77734375 C-31.11183594 94.81214844 -31.89945312 94.84695312 -32.7109375 94.8828125 C-46.99129523 95.23770896 -60.24018922 92.42822363 -71.13671875 82.65234375 C-79.14865227 73.98558874 -82.5011204 62.28112305 -83.32421875 50.77734375 C-83.37835938 50.11347656 -83.4325 49.44960937 -83.48828125 48.765625 C-84.10957992 33.93917935 -79.64195212 19.63254517 -69.94921875 8.40234375 C-50.94499278 -11.39372497 -23.55817169 -13.71609107 0 0 Z " fill="#FCE4BC" transform="translate(205.32421875,16.22265625)"/>
<path d="M0 0 C10.54479369 8.47546048 14.85808512 26.60852262 18 39 C18.27585937 40.00546875 18.55171875 41.0109375 18.8359375 42.046875 C22.21786015 54.70397164 23.37027356 67.23614706 23.3125 80.3125 C23.31001251 80.9910907 23.30752502 81.6696814 23.30496216 82.36883545 C23.24565286 92.85810797 22.85103202 102.8564522 20 113 C19.76893555 113.8264502 19.53787109 114.65290039 19.29980469 115.50439453 C11.3425838 143.04438607 -4.8264039 165.72424832 -30 180 C-47.70788772 189.55041326 -65.33348049 194.40455649 -85.5 194.375 C-86.15851959 194.37412384 -86.81703918 194.37324768 -87.49551392 194.37234497 C-98.75917777 194.32310361 -109.22159459 193.32752913 -120 190 C-120.75716309 189.76925781 -121.51432617 189.53851563 -122.29443359 189.30078125 C-146.32750993 181.72562773 -168.02132835 168.42442163 -187 152 C-187.79277344 151.31808594 -188.58554688 150.63617188 -189.40234375 149.93359375 C-222.57027673 120.74366245 -222.57027673 120.74366245 -225.5625 106.28125 C-225 104 -225 104 -223 102.21875 C-202.98520279 90.7519391 -182.56267902 80.10334126 -161.92797852 69.80615234 C-159.3504596 68.51971307 -156.77534291 67.2286578 -154.20239258 65.93310547 C-139.18213437 58.37049745 -124.0894762 51.14455104 -108.64868164 44.46679688 C-101.3213473 41.29094751 -94.12533722 37.85571411 -86.93118286 34.3913269 C-63.46342473 23.10735746 -39.77524643 12.19173392 -15.625 2.4375 C-14.7162915 2.06101318 -13.80758301 1.68452637 -12.87133789 1.29663086 C-8.26571376 -0.509295 -4.87475706 -1.74879177 0 0 Z " fill="#D3775B" transform="translate(323,174)"/>
<path d="M0 0 C1.20208099 -0.00175232 2.40416199 -0.00350464 3.64266968 -0.00531006 C6.89502574 -0.00891943 10.14734008 -0.00812613 13.3996954 -0.00493097 C16.83720411 -0.00236521 20.2747104 -0.00475669 23.71221924 -0.00631714 C29.48490891 -0.00812767 35.25758572 -0.00576303 41.03027344 -0.00097656 C47.65466814 0.00445353 54.27903199 0.00270798 60.90342593 -0.00280297 C66.63812734 -0.00737855 72.3728196 -0.00796283 78.10752225 -0.0053643 C81.51167634 -0.0038244 84.91581607 -0.00354331 88.31996918 -0.00690079 C127.55412864 -0.03344292 127.55412864 -0.03344292 139.12988281 3.12939453 C145.72208566 21.25795235 138.15757354 44.5158043 130.43212891 61.20849609 C120.88115185 80.95126564 106.09933527 95.73877095 85.45800781 103.51220703 C64.66041216 109.68244806 42.6189625 107.24466762 23.55566406 97.18408203 C-4.2299201 80.51906804 -21.95182874 50.97646535 -29.84130859 20.02416992 C-31.20678175 14.32461182 -32.05358492 9.03858429 -31.87011719 3.12939453 C-22.33259283 -1.25126604 -10.3122108 -0.01898387 0 0 Z " fill="#FDE5BC" transform="translate(190.8701171875,397.87060546875)"/>
<path d="M0 0 C11.90209288 7.89992715 20.18806744 16.65784664 23.671875 30.7734375 C25.91089085 46.50903261 22.82850597 65.41322223 13.76953125 78.52734375 C5.97098545 87.98995538 -4.48868356 92.44228256 -16.328125 94.7734375 C-20.79637531 95.17193873 -25.21966433 95.1941871 -29.703125 95.1484375 C-31.39695312 95.16583984 -31.39695312 95.16583984 -33.125 95.18359375 C-47.12946942 95.13552349 -60.46878767 92.22273358 -71.140625 82.6484375 C-79.15255852 73.98168249 -82.50502665 62.2772168 -83.328125 50.7734375 C-83.40933594 49.77763672 -83.40933594 49.77763672 -83.4921875 48.76171875 C-84.11348617 33.9352731 -79.64585837 19.62863892 -69.953125 8.3984375 C-50.95194462 -11.39445872 -23.55262232 -13.72741597 0 0 Z " fill="#DDA073" transform="translate(205.328125,16.2265625)"/>
</svg>
